<svg width="40" height="40" viewBox="0 0 40 40" fill="none" xmlns="http://www.w3.org/2000/svg">
<path d="M35 8.125H5C4.83424 8.125 4.67527 8.19085 4.55806 8.30806C4.44085 8.42527 4.375 8.58424 4.375 8.75V30C4.375 30.4973 4.57254 30.9742 4.92417 31.3258C5.27581 31.6775 5.75272 31.875 6.25 31.875H33.75C34.2473 31.875 34.7242 31.6775 35.0758 31.3258C35.4275 30.9742 35.625 30.4973 35.625 30V8.75C35.625 8.58424 35.5592 8.42527 35.4419 8.30806C35.3247 8.19085 35.1658 8.125 35 8.125ZM33.3906 9.375L20 21.6563L6.60938 9.375H33.3906ZM33.75 30.625H6.25C6.08424 30.625 5.92527 30.5592 5.80806 30.4419C5.69085 30.3247 5.625 30.1658 5.625 30V10.1719L19.5781 22.9531C19.6916 23.062 19.8428 23.1228 20 23.1228C20.1572 23.1228 20.3084 23.062 20.4219 22.9531L34.375 10.1719V30C34.375 30.1658 34.3092 30.3247 34.1919 30.4419C34.0747 30.5592 33.9158 30.625 33.75 30.625Z" fill="white"/>
</svg>
