<svg width="31" height="31" viewBox="0 0 31 31" fill="none" xmlns="http://www.w3.org/2000/svg">
<g clip-path="url(#clip0_11_121)">
<path d="M26.5 6V12C26.5 12.1326 26.4473 12.2598 26.3536 12.3536C26.2598 12.4473 26.1326 12.5 26 12.5C25.8674 12.5 25.7402 12.4473 25.6464 12.3536C25.5527 12.2598 25.5 12.1326 25.5 12V7.2125L19.35 13.35C19.3046 13.3969 19.2502 13.4341 19.19 13.4596C19.1299 13.485 19.0653 13.4982 19 13.4982C18.9347 13.4982 18.8701 13.485 18.81 13.4596C18.7498 13.4341 18.6954 13.3969 18.65 13.35C18.6031 13.3046 18.5659 13.2502 18.5404 13.19C18.515 13.1299 18.5018 13.0653 18.5018 13C18.5018 12.9347 18.515 12.8701 18.5404 12.81C18.5659 12.7498 18.6031 12.6954 18.65 12.65L24.7875 6.5H20C19.8674 6.5 19.7402 6.44732 19.6464 6.35355C19.5527 6.25979 19.5 6.13261 19.5 6C19.5 5.86739 19.5527 5.74021 19.6464 5.64645C19.7402 5.55268 19.8674 5.5 20 5.5H26C26.1326 5.5 26.2598 5.55268 26.3536 5.64645C26.4473 5.74021 26.5 5.86739 26.5 6ZM12.65 18.65L6.5 24.7875V20C6.5 19.8674 6.44732 19.7402 6.35355 19.6464C6.25979 19.5527 6.13261 19.5 6 19.5C5.86739 19.5 5.74021 19.5527 5.64645 19.6464C5.55268 19.7402 5.5 19.8674 5.5 20V26C5.5 26.1326 5.55268 26.2598 5.64645 26.3536C5.74021 26.4473 5.86739 26.5 6 26.5H12C12.1326 26.5 12.2598 26.4473 12.3536 26.3536C12.4473 26.2598 12.5 26.1326 12.5 26C12.5 25.8674 12.4473 25.7402 12.3536 25.6464C12.2598 25.5527 12.1326 25.5 12 25.5H7.2125L13.35 19.35C13.4222 19.2537 13.4573 19.1346 13.4487 19.0146C13.4402 18.8945 13.3887 18.7816 13.3036 18.6964C13.2184 18.6113 13.1055 18.5598 12.9854 18.5513C12.8654 18.5427 12.7463 18.5778 12.65 18.65Z" fill="#DFDFDF"/>
</g>
<defs>
<clipPath id="clip0_11_121">
<rect width="31" height="31" fill="white" transform="translate(31) rotate(90)"/>
</clipPath>
</defs>
</svg>
