<svg width="40" height="40" viewBox="0 0 40 40" fill="none" xmlns="http://www.w3.org/2000/svg">
<path d="M33.75 34.3751C32.9225 34.371 32.13 34.0404 31.5448 33.4552C30.9597 32.8701 30.6291 32.0776 30.625 31.2501V30.0001C30.6257 29.0882 30.3414 28.1989 29.8119 27.4566C29.2824 26.7142 28.5342 26.1558 27.6719 25.8594C28.9451 25.1596 30.0069 24.1306 30.7463 22.8799C31.4857 21.6293 31.8755 20.2029 31.875 18.7501V17.5001C31.867 15.9624 31.4286 14.4576 30.6094 13.1563C31.0184 11.974 31.1688 10.7176 31.0502 9.47221C30.9315 8.22679 30.5468 7.02137 29.9219 5.93756C29.8632 5.84475 29.7827 5.76773 29.6873 5.71325C29.592 5.65877 29.4848 5.62849 29.375 5.62506C27.9626 5.61998 26.5702 5.95873 25.318 6.61207C24.0657 7.2654 22.9913 8.21369 22.1875 9.37506H17.8125C17.0087 8.21369 15.9343 7.2654 14.682 6.61207C13.4298 5.95873 12.0374 5.61998 10.625 5.62506C10.5152 5.62849 10.408 5.65877 10.3127 5.71325C10.2173 5.76773 10.1368 5.84475 10.0781 5.93756C9.45323 7.02137 9.06845 8.22679 8.94984 9.47221C8.83123 10.7176 8.98155 11.974 9.39062 13.1563C8.57144 14.4576 8.13302 15.9624 8.125 17.5001V18.7501C8.1245 20.2029 8.51432 21.6293 9.25371 22.8799C9.99311 24.1306 11.0549 25.1596 12.3281 25.8594C11.4658 26.1558 10.7176 26.7142 10.1881 27.4566C9.65863 28.1989 9.37435 29.0882 9.375 30.0001V31.2501C9.37089 32.0776 9.04033 32.8701 8.45517 33.4552C7.87001 34.0404 7.07754 34.371 6.25 34.3751C6.08424 34.3751 5.92527 34.4409 5.80806 34.5581C5.69085 34.6753 5.625 34.8343 5.625 35.0001C5.625 35.1658 5.69085 35.3248 5.80806 35.442C5.92527 35.5592 6.08424 35.6251 6.25 35.6251C7.40905 35.6209 8.51946 35.1587 9.33904 34.3391C10.1586 33.5195 10.6209 32.4091 10.625 31.2501V30.0001C10.6291 29.1725 10.9597 28.3801 11.5448 27.7949C12.13 27.2097 12.9225 26.8792 13.75 26.8751H16.25V33.7501C16.2459 34.5776 15.9153 35.3701 15.3302 35.9552C14.745 36.5404 13.9525 36.871 13.125 36.8751C12.9592 36.8751 12.8003 36.9409 12.6831 37.0581C12.5658 37.1753 12.5 37.3343 12.5 37.5001C12.5 37.6658 12.5658 37.8248 12.6831 37.942C12.8003 38.0592 12.9592 38.1251 13.125 38.1251C14.2841 38.1209 15.3945 37.6587 16.214 36.8391C17.0336 36.0195 17.4959 34.9091 17.5 33.7501V26.8751H22.5V33.7501C22.5041 34.9091 22.9664 36.0195 23.786 36.8391C24.6055 37.6587 25.7159 38.1209 26.875 38.1251C27.0408 38.1251 27.1997 38.0592 27.3169 37.942C27.4342 37.8248 27.5 37.6658 27.5 37.5001C27.5 37.3343 27.4342 37.1753 27.3169 37.0581C27.1997 36.9409 27.0408 36.8751 26.875 36.8751C26.0475 36.871 25.255 36.5404 24.6698 35.9552C24.0847 35.3701 23.7541 34.5776 23.75 33.7501V26.8751H26.25C27.0775 26.8792 27.87 27.2097 28.4552 27.7949C29.0403 28.3801 29.3709 29.1725 29.375 30.0001V31.2501C29.3791 32.4091 29.8414 33.5195 30.661 34.3391C31.4805 35.1587 32.5909 35.6209 33.75 35.6251C33.9158 35.6251 34.0747 35.5592 34.1919 35.442C34.3092 35.3248 34.375 35.1658 34.375 35.0001C34.375 34.8343 34.3092 34.6753 34.1919 34.5581C34.0747 34.4409 33.9158 34.3751 33.75 34.3751ZM9.375 18.7501V17.5001C9.38716 16.1135 9.80544 14.7608 10.5781 13.6094C10.6398 13.5249 10.6793 13.4263 10.6929 13.3225C10.7066 13.2188 10.694 13.1133 10.6562 13.0157C10.2791 12.0287 10.1135 10.9734 10.17 9.91834C10.2265 8.86324 10.504 7.83176 10.9844 6.89068C12.1841 6.94166 13.3537 7.28238 14.3931 7.88372C15.4325 8.48506 16.3109 9.32914 16.9531 10.3438C17.0094 10.4293 17.0859 10.4997 17.1758 10.5488C17.2658 10.5978 17.3663 10.624 17.4688 10.6251H22.5312C22.6337 10.624 22.7342 10.5978 22.8242 10.5488C22.9141 10.4997 22.9906 10.4293 23.0469 10.3438C23.6891 9.32914 24.5675 8.48506 25.6069 7.88372C26.6463 7.28238 27.8159 6.94166 29.0156 6.89068C29.496 7.83176 29.7735 8.86324 29.83 9.91834C29.8865 10.9734 29.7209 12.0287 29.3438 13.0157C29.306 13.1133 29.2934 13.2188 29.3071 13.3225C29.3207 13.4263 29.3602 13.5249 29.4219 13.6094C30.1946 14.7608 30.6128 16.1135 30.625 17.5001V18.7501C30.625 19.6529 30.4472 20.5469 30.1017 21.381C29.7562 22.2151 29.2498 22.973 28.6114 23.6114C27.973 24.2498 27.2151 24.7562 26.3809 25.1017C25.5468 25.4472 24.6528 25.6251 23.75 25.6251H16.25C14.4266 25.6251 12.678 24.9007 11.3886 23.6114C10.0993 22.3221 9.375 20.5734 9.375 18.7501Z" fill="white"/>
</svg>
