<svg width="40" height="40" viewBox="0 0 40 40" fill="none" xmlns="http://www.w3.org/2000/svg">
<path d="M15 12.5C15 12.7472 14.9267 12.9889 14.7893 13.1945C14.652 13.4 14.4568 13.5602 14.2284 13.6549C13.9999 13.7495 13.7486 13.7742 13.5061 13.726C13.2637 13.6778 13.0409 13.5587 12.8661 13.3839C12.6913 13.2091 12.5722 12.9863 12.524 12.7439C12.4758 12.5014 12.5005 12.2501 12.5952 12.0216C12.6898 11.7932 12.85 11.598 13.0555 11.4607C13.2611 11.3233 13.5028 11.25 13.75 11.25C14.0815 11.25 14.3995 11.3817 14.6339 11.6161C14.8683 11.8505 15 12.1685 15 12.5ZM13.75 16.875C13.5842 16.875 13.4253 16.9408 13.3081 17.0581C13.1908 17.1753 13.125 17.3342 13.125 17.5V27.5C13.125 27.6658 13.1908 27.8247 13.3081 27.9419C13.4253 28.0592 13.5842 28.125 13.75 28.125C13.9158 28.125 14.0747 28.0592 14.1919 27.9419C14.3092 27.8247 14.375 27.6658 14.375 27.5V17.5C14.375 17.3342 14.3092 17.1753 14.1919 17.0581C14.0747 16.9408 13.9158 16.875 13.75 16.875ZM23.125 16.875C22.4145 16.8743 21.7121 17.0259 21.0652 17.3197C20.4183 17.6135 19.842 18.0426 19.375 18.5781V17.5C19.375 17.3342 19.3092 17.1753 19.1919 17.0581C19.0747 16.9408 18.9158 16.875 18.75 16.875C18.5842 16.875 18.4253 16.9408 18.3081 17.0581C18.1908 17.1753 18.125 17.3342 18.125 17.5V27.5C18.125 27.6658 18.1908 27.8247 18.3081 27.9419C18.4253 28.0592 18.5842 28.125 18.75 28.125C18.9158 28.125 19.0747 28.0592 19.1919 27.9419C19.3092 27.8247 19.375 27.6658 19.375 27.5V21.875C19.375 20.8804 19.7701 19.9266 20.4733 19.2233C21.1766 18.5201 22.1304 18.125 23.125 18.125C24.1196 18.125 25.0734 18.5201 25.7767 19.2233C26.4799 19.9266 26.875 20.8804 26.875 21.875V27.5C26.875 27.6658 26.9408 27.8247 27.0581 27.9419C27.1753 28.0592 27.3342 28.125 27.5 28.125C27.6658 28.125 27.8247 28.0592 27.9419 27.9419C28.0592 27.8247 28.125 27.6658 28.125 27.5V21.875C28.1209 20.5502 27.5928 19.2808 26.656 18.344C25.7192 17.4072 24.4498 16.8791 23.125 16.875ZM35 6.875V33.125C35 33.6223 34.8025 34.0992 34.4508 34.4508C34.0992 34.8025 33.6223 35 33.125 35H6.875C6.37772 35 5.90081 34.8025 5.54917 34.4508C5.19754 34.0992 5 33.6223 5 33.125V6.875C5 6.37772 5.19754 5.90081 5.54917 5.54917C5.90081 5.19754 6.37772 5 6.875 5H33.125C33.6223 5 34.0992 5.19754 34.4508 5.54917C34.8025 5.90081 35 6.37772 35 6.875ZM33.75 6.875C33.75 6.70924 33.6842 6.55027 33.5669 6.43306C33.4497 6.31585 33.2908 6.25 33.125 6.25H6.875C6.70924 6.25 6.55027 6.31585 6.43306 6.43306C6.31585 6.55027 6.25 6.70924 6.25 6.875V33.125C6.25 33.2908 6.31585 33.4497 6.43306 33.5669C6.55027 33.6842 6.70924 33.75 6.875 33.75H33.125C33.2908 33.75 33.4497 33.6842 33.5669 33.5669C33.6842 33.4497 33.75 33.2908 33.75 33.125V6.875Z" fill="white"/>
</svg>
