<svg width="23" height="19" viewBox="0 0 23 19" fill="none" xmlns="http://www.w3.org/2000/svg">
<path d="M22.4953 9.83909L13.7766 18.5578C13.7325 18.6033 13.6798 18.6394 13.6216 18.664C13.5634 18.6887 13.5007 18.7014 13.4375 18.7014C13.3743 18.7014 13.3116 18.6887 13.2534 18.664C13.1952 18.6394 13.1425 18.6033 13.0984 18.5578C13.053 18.5138 13.0169 18.4611 12.9923 18.4029C12.9676 18.3446 12.9549 18.282 12.9549 18.2188C12.9549 18.1555 12.9676 18.0929 12.9923 18.0347C13.0169 17.9764 13.053 17.9237 13.0984 17.8797L20.9816 9.9844H0.84375C0.715286 9.9844 0.592083 9.93337 0.501245 9.84253C0.410407 9.75169 0.359375 9.62849 0.359375 9.50003C0.359375 9.37156 0.410407 9.24836 0.501245 9.15752C0.592083 9.06668 0.715286 9.01565 0.84375 9.01565H20.9816L13.0984 1.12034C13.0285 1.02706 12.9945 0.911679 13.0028 0.795376C13.011 0.679072 13.061 0.569653 13.1434 0.487207C13.2259 0.404761 13.3353 0.354822 13.4516 0.346556C13.5679 0.338291 13.6833 0.372255 13.7766 0.442212L22.4953 9.16096C22.5407 9.20499 22.5768 9.25769 22.6015 9.31593C22.6261 9.37418 22.6388 9.43678 22.6388 9.50003C22.6388 9.56327 22.6261 9.62588 22.6015 9.68412C22.5768 9.74236 22.5407 9.79506 22.4953 9.83909Z" fill="#D73939"/>
</svg>
